<?xml version="1.0" encoding="utf-8"?>
<!-- Generator: Adobe Illustrator 23.0.0, SVG Export Plug-In . SVG Version: 6.00 Build 0)  -->
<svg version="1.1" id="Layer_1" xmlns="http://www.w3.org/2000/svg" xmlns:xlink="http://www.w3.org/1999/xlink" x="0px" y="0px"
	 viewBox="0 0 135.09 129.56" style="enable-background:new 0 0 135.09 129.56;" xml:space="preserve">
<style type="text/css">
	.st0{fill:#282829;}
	.st1{fill:#F58320;}
	.st2{fill:#F7953F;}
	.st3{fill:#F9A357;}
</style>
<g>
	<g>
		<path class="st0" d="M32.33,121.51c-10.21-5.37-18.14-12.96-23.82-22.78C2.84,88.91,0,77.63,0,64.9c0-12.89,2.8-24.24,8.4-34.06
			C14,21.02,21.94,13.43,32.22,8.06C42.49,2.69,54.31,0,67.66,0c13.19,0,24.89,2.69,35.09,8.06c10.2,5.37,18.14,13,23.82,22.9
			c5.67,9.9,8.51,21.21,8.51,33.94c0,12.74-2.84,24.01-8.51,33.83c-5.68,9.82-13.62,17.41-23.82,22.78
			c-10.21,5.37-21.9,8.05-35.09,8.05C54.31,129.56,42.53,126.88,32.33,121.51z"/>
	</g>
	<path class="st1" d="M93.33,73.26c6.34-3.09,14.45-5.44,25.18-7.85c0.67-0.15,0.67-1.11,0-1.26c-11.46-2.57-19.95-5.08-26.47-8.5
		c-0.38-0.2-0.46-0.72-0.15-1.03c1.73-1.7,3.68-3.49,5.88-5.42c0.52-0.45,0.06-1.29-0.6-1.1c-2.86,0.79-5.47,1.44-7.88,1.96
		c-0.52,0.11-0.95-0.44-0.71-0.91c1.61-3.21,3.66-6.71,6.15-10.66c0.37-0.58-0.31-1.25-0.89-0.89c-4.54,2.86-8.48,5.13-12.06,6.82
		c-0.46,0.22-0.98-0.17-0.91-0.67c0.39-2.83,0.99-5.95,1.75-9.45c0.15-0.67-0.71-1.07-1.13-0.54c-1.54,1.96-3,3.74-4.39,5.36
		c-0.3,0.35-0.86,0.27-1.06-0.14c-3.09-6.34-5.44-14.45-7.85-25.18c-0.15-0.67-1.11-0.67-1.26,0c-2.57,11.46-5.08,19.95-8.5,26.47
		c-0.2,0.38-0.72,0.46-1.03,0.15c-1.7-1.73-3.49-3.68-5.42-5.88c-0.45-0.52-1.29-0.06-1.1,0.6c0.79,2.86,1.45,5.47,1.96,7.88
		c0.11,0.52-0.44,0.95-0.91,0.71c-3.21-1.61-6.71-3.66-10.66-6.15c-0.58-0.37-1.25,0.31-0.89,0.89c2.86,4.54,5.13,8.48,6.82,12.06
		c0.22,0.46-0.17,0.98-0.67,0.91c-2.83-0.39-5.95-0.99-9.45-1.75c-0.67-0.15-1.07,0.71-0.54,1.13c1.96,1.54,3.74,3,5.36,4.39
		c0.35,0.3,0.27,0.86-0.14,1.06c-6.34,3.09-14.45,5.44-25.17,7.85c-0.67,0.15-0.67,1.11,0,1.26c11.46,2.58,19.95,5.08,26.47,8.5
		c0.38,0.2,0.46,0.72,0.15,1.03c-1.73,1.7-3.68,3.49-5.88,5.42c-0.52,0.45-0.06,1.29,0.6,1.1c2.86-0.79,5.47-1.45,7.88-1.96
		c0.52-0.11,0.95,0.44,0.71,0.91c-1.61,3.21-3.66,6.71-6.15,10.66c-0.37,0.58,0.31,1.25,0.89,0.89c4.54-2.86,8.48-5.13,12.06-6.82
		c0.46-0.22,0.98,0.17,0.91,0.67c-0.39,2.83-0.99,5.95-1.75,9.45c-0.15,0.67,0.71,1.07,1.13,0.54c1.54-1.96,3-3.74,4.39-5.36
		c0.3-0.35,0.86-0.27,1.06,0.14c3.09,6.34,5.44,14.45,7.85,25.17c0.15,0.67,1.11,0.67,1.26,0c2.57-11.46,5.08-19.95,8.5-26.47
		c0.2-0.38,0.72-0.46,1.03-0.15c1.7,1.73,3.49,3.68,5.42,5.88c0.45,0.52,1.29,0.06,1.1-0.6c-0.79-2.86-1.45-5.47-1.96-7.88
		c-0.11-0.52,0.44-0.95,0.91-0.71c3.21,1.61,6.71,3.66,10.66,6.15c0.58,0.37,1.25-0.31,0.89-0.89c-2.86-4.54-5.13-8.48-6.82-12.06
		c-0.22-0.46,0.17-0.98,0.67-0.91c2.83,0.39,5.95,0.99,9.44,1.75c0.67,0.15,1.07-0.71,0.54-1.13c-1.96-1.54-3.74-3-5.36-4.39
		C92.84,74.03,92.91,73.46,93.33,73.26z"/>
	<path class="st1" d="M93.33,73.26c6.34-3.09,14.45-5.44,25.18-7.85c0.67-0.15,0.67-1.11,0-1.26c-11.46-2.57-19.95-5.08-26.47-8.5
		c-0.38-0.2-0.46-0.72-0.15-1.03c1.73-1.7,3.68-3.49,5.88-5.42c0.52-0.45,0.06-1.29-0.6-1.1c-2.86,0.79-5.47,1.44-7.88,1.96
		c-0.52,0.11-0.95-0.44-0.71-0.91c1.61-3.21,3.66-6.71,6.15-10.66c0.37-0.58-0.31-1.25-0.89-0.89c-4.54,2.86-8.48,5.13-12.06,6.82
		c-0.46,0.22-0.98-0.17-0.91-0.67c0.39-2.83,0.99-5.95,1.75-9.45c0.15-0.67-0.71-1.07-1.13-0.54c-1.54,1.96-3,3.74-4.39,5.36
		c-0.3,0.35-0.86,0.27-1.06-0.14c-3.09-6.34-5.44-14.45-7.85-25.18c-0.15-0.67-1.11-0.67-1.26,0c-2.57,11.46-5.08,19.95-8.5,26.47
		c-0.2,0.38-0.72,0.46-1.03,0.15c-1.7-1.73-3.49-3.68-5.42-5.88c-0.45-0.52-1.29-0.06-1.1,0.6c0.79,2.86,1.45,5.47,1.96,7.88
		c0.11,0.52-0.44,0.95-0.91,0.71c-3.21-1.61-6.71-3.66-10.66-6.15c-0.58-0.37-1.25,0.31-0.89,0.89c2.86,4.54,5.13,8.48,6.82,12.06
		c0.22,0.46-0.17,0.98-0.67,0.91c-2.83-0.39-5.95-0.99-9.45-1.75c-0.67-0.15-1.07,0.71-0.54,1.13c1.96,1.54,3.74,3,5.36,4.39
		c0.35,0.3,0.27,0.86-0.14,1.06c-6.34,3.09-14.45,5.44-25.17,7.85c-0.67,0.15-0.67,1.11,0,1.26c11.46,2.58,19.95,5.08,26.47,8.5
		c0.38,0.2,0.46,0.72,0.15,1.03c-1.73,1.7-3.68,3.49-5.88,5.42c-0.52,0.45-0.06,1.29,0.6,1.1c2.86-0.79,5.47-1.45,7.88-1.96
		c0.52-0.11,0.95,0.44,0.71,0.91c-1.61,3.21-3.66,6.71-6.15,10.66c-0.37,0.58,0.31,1.25,0.89,0.89c4.54-2.86,8.48-5.13,12.06-6.82
		c0.46-0.22,0.98,0.17,0.91,0.67c-0.39,2.83-0.99,5.95-1.75,9.45c-0.15,0.67,0.71,1.07,1.13,0.54c1.54-1.96,3-3.74,4.39-5.36
		c0.3-0.35,0.86-0.27,1.06,0.14c3.09,6.34,5.44,14.45,7.85,25.17c0.15,0.67,1.11,0.67,1.26,0c2.57-11.46,5.08-19.95,8.5-26.47
		c0.2-0.38,0.72-0.46,1.03-0.15c1.7,1.73,3.49,3.68,5.42,5.88c0.45,0.52,1.29,0.06,1.1-0.6c-0.79-2.86-1.45-5.47-1.96-7.88
		c-0.11-0.52,0.44-0.95,0.91-0.71c3.21,1.61,6.71,3.66,10.66,6.15c0.58,0.37,1.25-0.31,0.89-0.89c-2.86-4.54-5.13-8.48-6.82-12.06
		c-0.22-0.46,0.17-0.98,0.67-0.91c2.83,0.39,5.95,0.99,9.44,1.75c0.67,0.15,1.07-0.71,0.54-1.13c-1.96-1.54-3.74-3-5.36-4.39
		C92.84,74.03,92.91,73.46,93.33,73.26z"/>
	<path class="st2" d="M80.71,69.11c3.24-1.58,7.38-2.78,12.86-4.01c0.34-0.08,0.34-0.56,0-0.64c-5.85-1.32-10.19-2.59-13.52-4.34
		c-0.2-0.1-0.24-0.37-0.08-0.52c0.88-0.87,1.88-1.78,3-2.77c0.26-0.23,0.03-0.66-0.3-0.56c-1.46,0.4-2.8,0.74-4.03,1
		c-0.27,0.06-0.48-0.22-0.36-0.47c0.82-1.64,1.87-3.43,3.14-5.45c0.19-0.3-0.16-0.64-0.45-0.45c-2.32,1.46-4.33,2.62-6.16,3.49
		c-0.23,0.11-0.5-0.08-0.46-0.34c0.2-1.45,0.5-3.04,0.9-4.83c0.07-0.34-0.36-0.55-0.58-0.27c-0.79,1-1.53,1.91-2.24,2.74
		c-0.15,0.18-0.44,0.14-0.54-0.07c-1.58-3.24-2.78-7.38-4.01-12.86c-0.08-0.34-0.56-0.34-0.64,0c-1.32,5.85-2.59,10.19-4.34,13.52
		c-0.1,0.2-0.37,0.24-0.52,0.08c-0.87-0.88-1.78-1.88-2.77-3c-0.23-0.26-0.66-0.03-0.56,0.3c0.4,1.46,0.74,2.8,1,4.03
		c0.06,0.27-0.22,0.48-0.47,0.36c-1.64-0.82-3.43-1.87-5.45-3.14c-0.3-0.19-0.64,0.16-0.45,0.45c1.46,2.32,2.62,4.33,3.49,6.16
		c0.11,0.23-0.08,0.5-0.34,0.46c-1.45-0.2-3.04-0.5-4.83-0.9c-0.34-0.07-0.55,0.36-0.27,0.58c1,0.79,1.91,1.53,2.74,2.24
		c0.18,0.15,0.14,0.44-0.07,0.54c-3.24,1.58-7.38,2.78-12.86,4.01c-0.34,0.08-0.34,0.56,0,0.64c5.85,1.32,10.19,2.6,13.52,4.34
		c0.2,0.1,0.24,0.37,0.08,0.52c-0.88,0.87-1.88,1.78-3,2.77c-0.26,0.23-0.03,0.66,0.3,0.56c1.46-0.4,2.8-0.74,4.03-1
		c0.27-0.06,0.48,0.22,0.36,0.47c-0.82,1.64-1.87,3.43-3.14,5.45c-0.19,0.3,0.16,0.64,0.45,0.45c2.32-1.46,4.33-2.62,6.16-3.49
		c0.23-0.11,0.5,0.08,0.46,0.34c-0.2,1.45-0.5,3.04-0.9,4.83c-0.07,0.34,0.36,0.55,0.58,0.27c0.79-1,1.53-1.91,2.24-2.74
		c0.15-0.18,0.44-0.14,0.54,0.07c1.58,3.24,2.78,7.38,4.01,12.86c0.08,0.34,0.56,0.34,0.64,0c1.32-5.85,2.6-10.19,4.34-13.52
		c0.1-0.2,0.37-0.24,0.52-0.08c0.87,0.88,1.78,1.88,2.77,3c0.23,0.26,0.66,0.03,0.56-0.3c-0.4-1.46-0.74-2.8-1-4.03
		c-0.06-0.27,0.22-0.48,0.47-0.36c1.64,0.82,3.43,1.87,5.45,3.14c0.3,0.19,0.64-0.16,0.45-0.45c-1.46-2.32-2.62-4.33-3.49-6.16
		c-0.11-0.23,0.08-0.5,0.34-0.46c1.45,0.2,3.04,0.5,4.82,0.9c0.34,0.07,0.55-0.36,0.27-0.58c-1-0.79-1.91-1.53-2.74-2.24
		C80.47,69.5,80.5,69.22,80.71,69.11z"/>
	<path class="st3" d="M71.57,66.11c0.99-0.48,2.26-0.85,3.94-1.23c0.1-0.02,0.1-0.17,0-0.2c-1.79-0.4-3.12-0.79-4.14-1.33
		c-0.06-0.03-0.07-0.11-0.02-0.16c0.27-0.27,0.58-0.55,0.92-0.85c0.08-0.07,0.01-0.2-0.09-0.17c-0.45,0.12-0.86,0.23-1.23,0.31
		c-0.08,0.02-0.15-0.07-0.11-0.14c0.25-0.5,0.57-1.05,0.96-1.67c0.06-0.09-0.05-0.2-0.14-0.14c-0.71,0.45-1.33,0.8-1.89,1.07
		c-0.07,0.03-0.15-0.03-0.14-0.1c0.06-0.44,0.15-0.93,0.27-1.48c0.02-0.1-0.11-0.17-0.18-0.08c-0.24,0.31-0.47,0.59-0.69,0.84
		c-0.05,0.05-0.13,0.04-0.17-0.02c-0.48-0.99-0.85-2.26-1.23-3.94c-0.02-0.1-0.17-0.1-0.2,0c-0.4,1.79-0.79,3.12-1.33,4.14
		c-0.03,0.06-0.11,0.07-0.16,0.02c-0.27-0.27-0.55-0.58-0.85-0.92c-0.07-0.08-0.2-0.01-0.17,0.09c0.12,0.45,0.23,0.86,0.31,1.23
		c0.02,0.08-0.07,0.15-0.14,0.11c-0.5-0.25-1.05-0.57-1.67-0.96c-0.09-0.06-0.2,0.05-0.14,0.14c0.45,0.71,0.8,1.33,1.07,1.89
		c0.03,0.07-0.03,0.15-0.1,0.14c-0.44-0.06-0.93-0.15-1.48-0.27c-0.1-0.02-0.17,0.11-0.08,0.18c0.31,0.24,0.59,0.47,0.84,0.69
		c0.05,0.05,0.04,0.13-0.02,0.17c-0.99,0.48-2.26,0.85-3.94,1.23c-0.1,0.02-0.1,0.17,0,0.2c1.79,0.4,3.12,0.79,4.14,1.33
		c0.06,0.03,0.07,0.11,0.02,0.16c-0.27,0.27-0.58,0.55-0.92,0.85c-0.08,0.07-0.01,0.2,0.09,0.17c0.45-0.12,0.86-0.23,1.23-0.31
		c0.08-0.02,0.15,0.07,0.11,0.14c-0.25,0.5-0.57,1.05-0.96,1.67c-0.06,0.09,0.05,0.2,0.14,0.14c0.71-0.45,1.32-0.8,1.89-1.07
		c0.07-0.03,0.15,0.03,0.14,0.1c-0.06,0.44-0.15,0.93-0.27,1.48c-0.02,0.1,0.11,0.17,0.18,0.08c0.24-0.31,0.47-0.59,0.69-0.84
		c0.05-0.05,0.13-0.04,0.17,0.02c0.48,0.99,0.85,2.26,1.23,3.94c0.02,0.1,0.17,0.1,0.2,0c0.4-1.79,0.79-3.12,1.33-4.14
		c0.03-0.06,0.11-0.07,0.16-0.02c0.27,0.27,0.55,0.58,0.85,0.92c0.07,0.08,0.2,0.01,0.17-0.09c-0.12-0.45-0.23-0.86-0.31-1.23
		c-0.02-0.08,0.07-0.15,0.14-0.11c0.5,0.25,1.05,0.57,1.67,0.96c0.09,0.06,0.2-0.05,0.14-0.14c-0.45-0.71-0.8-1.33-1.07-1.89
		c-0.03-0.07,0.03-0.15,0.1-0.14c0.44,0.06,0.93,0.15,1.48,0.27c0.1,0.02,0.17-0.11,0.08-0.18c-0.31-0.24-0.59-0.47-0.84-0.69
		C71.5,66.23,71.51,66.14,71.57,66.11z"/>
</g>
</svg>
